<svg xmlns="http://www.w3.org/2000/svg" viewBox="0 0 640 300" role="img" aria-label="Maddox RFB weapon card">
  <defs>
    <linearGradient id="bg" x1="0" x2="1" y1="0" y2="1">
      <stop offset="0" stop-color="#152124"/>
      <stop offset="1" stop-color="#080a0a"/>
    </linearGradient>
    <linearGradient id="metal" x1="0" x2="1">
      <stop offset="0" stop-color="#5fc7c8"/>
      <stop offset=".5" stop-color="#b8b4aa"/>
      <stop offset="1" stop-color="#91a36a"/>
    </linearGradient>
  </defs>
  <rect width="640" height="300" rx="22" fill="url(#bg)"/>
  <path d="M0 84 C160 20 325 138 640 58" fill="none" stroke="#5fc7c8" stroke-width="36" opacity=".05"/>
  <g transform="translate(66 124)" fill="url(#metal)">
    <rect x="104" y="18" width="278" height="32" rx="9"/>
    <rect x="380" y="28" width="108" height="12" rx="4"/>
    <rect x="44" y="30" width="72" height="18" rx="5"/>
    <path d="M120 50h108l-19 54h-70z"/>
    <path d="M258 50h52l20 73h-49z"/>
    <path d="M42 45L0 88h75l43-43z"/>
    <rect x="176" y="0" width="92" height="16" rx="6"/>
  </g>
  <text x="36" y="56" fill="#f5f2e9" font-family="Rajdhani, Arial" font-size="38" font-weight="700">MADDOX RFB</text>
  <text x="38" y="86" fill="#5fc7c8" font-family="Inter, Arial" font-size="15" font-weight="800">ACCURATE AR</text>
</svg>
