<svg xmlns="http://www.w3.org/2000/svg" viewBox="0 0 640 300" role="img" aria-label="MK35 ISR weapon card">
  <defs>
    <linearGradient id="bg" x1="0" x2="1" y1="0" y2="1">
      <stop offset="0" stop-color="#182421"/>
      <stop offset="1" stop-color="#080a0a"/>
    </linearGradient>
    <linearGradient id="metal" x1="0" x2="1">
      <stop offset="0" stop-color="#d7d3c7"/>
      <stop offset="0.45" stop-color="#78857f"/>
      <stop offset="1" stop-color="#f0ad37"/>
    </linearGradient>
  </defs>
  <rect width="640" height="300" rx="22" fill="url(#bg)"/>
  <path d="M0 230 C150 184 250 260 640 168 L640 300 L0 300Z" fill="#5fc7c8" opacity=".09"/>
  <g transform="translate(70 122)" fill="url(#metal)">
    <rect x="92" y="20" width="285" height="34" rx="9"/>
    <rect x="374" y="28" width="112" height="14" rx="4"/>
    <rect x="34" y="30" width="72" height="20" rx="5"/>
    <path d="M112 52h108l-16 49h-74z"/>
    <path d="M248 52h54l18 75h-56z"/>
    <path d="M54 48l-38 42h73l38-42z"/>
    <rect x="186" y="0" width="76" height="17" rx="6"/>
    <rect x="286" y="4" width="56" height="12" rx="4"/>
  </g>
  <text x="36" y="56" fill="#f5f2e9" font-family="Rajdhani, Arial" font-size="38" font-weight="700">MK35 ISR</text>
  <text x="38" y="86" fill="#f0ad37" font-family="Inter, Arial" font-size="15" font-weight="800">LONG RANGE AR</text>
</svg>
