<svg xmlns="http://www.w3.org/2000/svg" viewBox="0 0 640 300" role="img" aria-label="Peacekeeper Mk1 weapon card">
  <defs>
    <linearGradient id="bg" x1="0" x2="1" y1="0" y2="1">
      <stop offset="0" stop-color="#f7f7f8"/>
      <stop offset="1" stop-color="#e5f4ef"/>
    </linearGradient>
    <linearGradient id="metal" x1="0" x2="1">
      <stop offset="0" stop-color="#17211f"/>
      <stop offset=".55" stop-color="#10a37f"/>
      <stop offset="1" stop-color="#202123"/>
    </linearGradient>
  </defs>
  <rect width="640" height="300" rx="22" fill="url(#bg)"/>
  <path d="M54 224 C176 184 305 252 586 186" fill="none" stroke="#10a37f" stroke-width="22" opacity=".12"/>
  <g transform="translate(70 125)" fill="url(#metal)">
    <rect x="124" y="18" width="246" height="34" rx="8"/>
    <rect x="360" y="27" width="104" height="12" rx="4"/>
    <rect x="82" y="31" width="58" height="18" rx="5"/>
    <rect x="214" y="0" width="82" height="14" rx="5"/>
    <path d="M152 50h72l-18 72h-45z"/>
    <path d="M260 50h54l34 72h-49z"/>
    <path d="M82 44 24 86h72l42-42z"/>
    <rect x="384" y="18" width="78" height="6" rx="3"/>
  </g>
  <text x="36" y="58" fill="#202123" font-family="Rajdhani, Arial" font-size="37" font-weight="700">PEACEKEEPER MK1</text>
  <text x="38" y="88" fill="#10a37f" font-family="Inter, Arial" font-size="15" font-weight="800">LONG RANGE AR</text>
</svg>
