<svg xmlns="http://www.w3.org/2000/svg" viewBox="0 0 640 300" role="img" aria-label="Ryden 45K weapon card">
  <defs>
    <linearGradient id="bg" x1="0" x2="1" y1="0" y2="1">
      <stop offset="0" stop-color="#ffffff"/>
      <stop offset="1" stop-color="#eff7f4"/>
    </linearGradient>
    <linearGradient id="metal" x1="0" x2="1">
      <stop offset="0" stop-color="#202123"/>
      <stop offset=".52" stop-color="#19c37d"/>
      <stop offset="1" stop-color="#101513"/>
    </linearGradient>
  </defs>
  <rect width="640" height="300" rx="22" fill="url(#bg)"/>
  <circle cx="512" cy="82" r="108" fill="#10a37f" opacity=".09"/>
  <g transform="translate(76 132)" fill="url(#metal)">
    <rect x="112" y="15" width="214" height="33" rx="9"/>
    <rect x="318" y="25" width="86" height="12" rx="4"/>
    <rect x="58" y="29" width="70" height="18" rx="5"/>
    <path d="M136 48h68l-8 70h-45z"/>
    <path d="M226 48h48l20 70h-42z"/>
    <path d="M56 43 10 80h68l34-37z"/>
    <rect x="170" y="0" width="58" height="14" rx="5"/>
    <rect x="328" y="11" width="42" height="8" rx="4"/>
  </g>
  <text x="36" y="58" fill="#202123" font-family="Rajdhani, Arial" font-size="38" font-weight="700">RYDEN 45K</text>
  <text x="38" y="88" fill="#10a37f" font-family="Inter, Arial" font-size="15" font-weight="800">CLOSE RANGE SMG</text>
</svg>
